# MagicaVoxel @ Ephtracy

# group
g Chest

# material
mtllib Chest.mtl
usemtl palette

# normals
vn -1 0 0
vn 1 0 0
vn 0 0 1
vn 0 0 -1
vn 0 -1 0
vn 0 1 0

# texcoords
vt 0.947266 0.5
vt 0.951172 0.5
vt 0.970703 0.5
vt 0.974609 0.5
vt 0.978516 0.5
vt 0.982422 0.5
vt 0.986328 0.5

# verts
v -6 13 3
v -6 13 -1
v -6 14 3
v -6 14 -1
v -5 7 3
v -5 7 -1
v -5 8 3
v -5 8 -1
v -5 13 4
v -5 13 3
v -5 13 -1
v -5 13 -2
v -5 14 4
v -5 14 3
v -5 14 -1
v -5 14 -2
v -5 15 3
v -5 15 -1
v -4 3 3
v -4 3 -1
v -4 4 2
v -4 4 1
v -4 5 2
v -4 5 1
v -4 6 2
v -4 6 1
v -4 7 4
v -4 7 3
v -4 7 2
v -4 7 1
v -4 7 -1
v -4 7 -2
v -4 8 4
v -4 8 3
v -4 8 -1
v -4 8 -2
v -4 9 3
v -4 9 2
v -4 9 -0
v -4 9 -1
v -4 10 3
v -4 10 2
v -4 10 -0
v -4 10 -1
v -4 11 3
v -4 11 2
v -4 13 3
v -4 13 -1
v -4 14 4
v -4 14 3
v -4 14 -1
v -4 14 -2
v -4 15 4
v -4 15 3
v -4 15 -1
v -4 15 -2
v -4 16 3
v -4 16 -1
v -3 11 4
v -3 11 3
v -3 11 -1
v -3 11 -2
v -3 13 4
v -3 13 3
v -3 13 -1
v -3 13 -2
v -2 10 4
v -2 10 3
v -2 10 -1
v -2 10 -2
v -2 11 5
v -2 11 4
v -2 11 3
v -2 11 -1
v -2 11 -2
v -2 14 5
v -2 14 4
v -1 9 4
v -1 9 3
v -1 9 -1
v -1 9 -2
v -1 10 5
v -1 10 4
v -1 10 3
v -1 10 -1
v -1 10 -2
v -1 11 5
v -1 11 4
v 3 14 4
v 3 14 3
v 3 14 -1
v 3 14 -2
v 3 15 4
v 3 15 3
v 3 15 -1
v 3 15 -2
v 3 16 3
v 3 16 -1
v -3 14 4
v -3 14 3
v -3 14 -1
v -3 14 -2
v -3 15 4
v -3 15 3
v -3 15 -1
v -3 15 -2
v -3 16 3
v -3 16 -1
v 1 9 4
v 1 9 3
v 1 9 -1
v 1 9 -2
v 1 10 5
v 1 10 4
v 1 10 3
v 1 10 -1
v 1 10 -2
v 1 11 5
v 1 11 4
v 2 10 4
v 2 10 3
v 2 10 -1
v 2 10 -2
v 2 11 5
v 2 11 4
v 2 11 3
v 2 11 -1
v 2 11 -2
v 2 14 5
v 2 14 4
v 3 11 4
v 3 11 3
v 3 11 -1
v 3 11 -2
v 3 13 4
v 3 13 3
v 3 13 -1
v 3 13 -2
v 4 3 3
v 4 3 -1
v 4 4 2
v 4 4 1
v 4 5 2
v 4 5 1
v 4 6 2
v 4 6 1
v 4 7 4
v 4 7 3
v 4 7 2
v 4 7 1
v 4 7 -1
v 4 7 -2
v 4 8 4
v 4 8 3
v 4 8 -1
v 4 8 -2
v 4 9 3
v 4 9 2
v 4 9 -0
v 4 9 -1
v 4 10 3
v 4 10 2
v 4 10 -0
v 4 10 -1
v 4 11 3
v 4 11 2
v 4 13 3
v 4 13 -1
v 4 14 4
v 4 14 3
v 4 14 -1
v 4 14 -2
v 4 15 4
v 4 15 3
v 4 15 -1
v 4 15 -2
v 4 16 3
v 4 16 -1
v 5 7 3
v 5 7 -1
v 5 8 3
v 5 8 -1
v 5 13 4
v 5 13 3
v 5 13 -1
v 5 13 -2
v 5 14 4
v 5 14 3
v 5 14 -1
v 5 14 -2
v 5 15 3
v 5 15 -1
v 6 13 3
v 6 13 -1
v 6 14 3
v 6 14 -1
v -2 11 5
v -2 14 5
v -1 10 5
v -1 11 5
v -1 12 5
v -1 13 5
v -1 14 5
v 1 10 5
v 1 11 5
v 1 12 5
v 1 13 5
v 1 14 5
v 2 11 5
v 2 14 5
v -5 13 4
v -5 14 4
v -4 7 4
v -4 8 4
v -4 14 4
v -4 15 4
v -3 11 4
v -3 13 4
v -3 14 4
v -3 15 4
v -2 10 4
v -2 11 4
v -2 14 4
v -1 9 4
v -1 10 4
v -1 11 4
v 1 9 4
v 1 10 4
v 1 11 4
v 2 10 4
v 2 11 4
v 2 14 4
v 3 11 4
v 3 13 4
v 3 14 4
v 3 15 4
v 4 7 4
v 4 8 4
v 4 14 4
v 4 15 4
v 5 13 4
v 5 14 4
v -6 13 3
v -6 14 3
v -5 7 3
v -5 8 3
v -5 13 3
v -5 14 3
v -5 15 3
v -4 3 3
v -4 7 3
v -4 8 3
v -4 9 3
v -4 10 3
v -4 11 3
v -4 13 3
v -4 14 3
v -4 15 3
v -4 16 3
v -3 4 3
v -3 5 3
v -3 6 3
v -3 7 3
v -3 9 3
v -3 10 3
v -3 11 3
v -3 13 3
v -3 15 3
v -3 16 3
v -2 4 3
v -2 5 3
v -2 6 3
v -2 7 3
v -2 10 3
v -2 11 3
v -1 4 3
v -1 5 3
v -1 6 3
v -1 7 3
v -1 9 3
v -1 10 3
v 1 4 3
v 1 5 3
v 1 6 3
v 1 7 3
v 1 9 3
v 1 10 3
v 2 4 3
v 2 5 3
v 2 6 3
v 2 7 3
v 2 10 3
v 2 11 3
v 3 4 3
v 3 5 3
v 3 6 3
v 3 7 3
v 3 9 3
v 3 10 3
v 3 11 3
v 3 13 3
v 3 15 3
v 3 16 3
v 4 3 3
v 4 7 3
v 4 8 3
v 4 9 3
v 4 10 3
v 4 11 3
v 4 13 3
v 4 14 3
v 4 15 3
v 4 16 3
v 5 7 3
v 5 8 3
v 5 13 3
v 5 14 3
v 5 15 3
v 6 13 3
v 6 14 3
v -6 13 -1
v -6 14 -1
v -5 7 -1
v -5 8 -1
v -5 13 -1
v -5 14 -1
v -5 15 -1
v -4 3 -1
v -4 7 -1
v -4 8 -1
v -4 9 -1
v -4 10 -1
v -4 13 -1
v -4 14 -1
v -4 15 -1
v -4 16 -1
v -3 4 -1
v -3 5 -1
v -3 6 -1
v -3 7 -1
v -3 9 -1
v -3 10 -1
v -3 11 -1
v -3 13 -1
v -3 15 -1
v -3 16 -1
v -2 4 -1
v -2 5 -1
v -2 6 -1
v -2 7 -1
v -2 10 -1
v -2 11 -1
v -1 4 -1
v -1 5 -1
v -1 6 -1
v -1 7 -1
v -1 9 -1
v -1 10 -1
v 1 4 -1
v 1 5 -1
v 1 6 -1
v 1 7 -1
v 1 9 -1
v 1 10 -1
v 2 4 -1
v 2 5 -1
v 2 6 -1
v 2 7 -1
v 2 10 -1
v 2 11 -1
v 3 4 -1
v 3 5 -1
v 3 6 -1
v 3 7 -1
v 3 9 -1
v 3 10 -1
v 3 11 -1
v 3 13 -1
v 3 15 -1
v 3 16 -1
v 4 3 -1
v 4 7 -1
v 4 8 -1
v 4 9 -1
v 4 10 -1
v 4 13 -1
v 4 14 -1
v 4 15 -1
v 4 16 -1
v 5 7 -1
v 5 8 -1
v 5 13 -1
v 5 14 -1
v 5 15 -1
v 6 13 -1
v 6 14 -1
v -5 13 -2
v -5 14 -2
v -4 7 -2
v -4 8 -2
v -4 14 -2
v -4 15 -2
v -3 11 -2
v -3 13 -2
v -3 14 -2
v -3 15 -2
v -2 10 -2
v -2 11 -2
v -2 14 -2
v -1 9 -2
v -1 10 -2
v -1 11 -2
v 1 9 -2
v 1 10 -2
v 1 11 -2
v 2 10 -2
v 2 11 -2
v 2 14 -2
v 3 11 -2
v 3 13 -2
v 3 14 -2
v 3 15 -2
v 4 7 -2
v 4 8 -2
v 4 14 -2
v 4 15 -2
v 5 13 -2
v 5 14 -2
v -4 3 3
v 4 3 3
v -4 3 -1
v 4 3 -1
v -4 7 4
v 4 7 4
v -5 7 3
v -4 7 3
v -3 7 3
v -2 7 3
v -1 7 3
v 1 7 3
v 2 7 3
v 3 7 3
v 4 7 3
v 5 7 3
v -4 7 2
v 4 7 2
v -4 7 1
v 4 7 1
v -5 7 -1
v -4 7 -1
v -3 7 -1
v -2 7 -1
v -1 7 -1
v 1 7 -1
v 2 7 -1
v 3 7 -1
v 4 7 -1
v 5 7 -1
v -4 7 -2
v 4 7 -2
v -1 9 4
v 1 9 4
v -1 9 3
v 1 9 3
v -1 9 -1
v 1 9 -1
v -1 9 -2
v 1 9 -2
v -1 10 5
v 1 10 5
v -2 10 4
v -1 10 4
v 1 10 4
v 2 10 4
v -2 10 3
v -1 10 3
v 1 10 3
v 2 10 3
v -2 10 -1
v -1 10 -1
v 1 10 -1
v 2 10 -1
v -2 10 -2
v -1 10 -2
v 1 10 -2
v 2 10 -2
v -2 11 5
v -1 11 5
v 1 11 5
v 2 11 5
v -3 11 4
v -2 11 4
v -1 11 4
v 1 11 4
v 2 11 4
v 3 11 4
v -3 11 3
v -2 11 3
v 2 11 3
v 3 11 3
v -3 11 -1
v -2 11 -1
v 2 11 -1
v 3 11 -1
v -3 11 -2
v -2 11 -2
v 2 11 -2
v 3 11 -2
v -5 13 4
v -3 13 4
v 3 13 4
v 5 13 4
v -6 13 3
v -5 13 3
v -4 13 3
v -3 13 3
v 3 13 3
v 4 13 3
v 5 13 3
v 6 13 3
v -6 13 -1
v -5 13 -1
v -4 13 -1
v -3 13 -1
v 3 13 -1
v 4 13 -1
v 5 13 -1
v 6 13 -1
v -5 13 -2
v -3 13 -2
v 3 13 -2
v 5 13 -2
v -4 8 4
v 4 8 4
v -5 8 3
v -4 8 3
v 4 8 3
v 5 8 3
v -5 8 -1
v -4 8 -1
v 4 8 -1
v 5 8 -1
v -4 8 -2
v 4 8 -2
v -2 14 5
v -1 14 5
v 1 14 5
v 2 14 5
v -5 14 4
v -4 14 4
v -3 14 4
v -2 14 4
v -1 14 4
v 1 14 4
v 2 14 4
v 3 14 4
v 4 14 4
v 5 14 4
v -6 14 3
v -5 14 3
v -4 14 3
v -3 14 3
v -2 14 3
v 2 14 3
v 3 14 3
v 4 14 3
v 5 14 3
v 6 14 3
v -6 14 -1
v -5 14 -1
v -4 14 -1
v -3 14 -1
v -2 14 -1
v 2 14 -1
v 3 14 -1
v 4 14 -1
v 5 14 -1
v 6 14 -1
v -5 14 -2
v -4 14 -2
v -3 14 -2
v -2 14 -2
v 2 14 -2
v 3 14 -2
v 4 14 -2
v 5 14 -2
v -4 15 4
v -3 15 4
v 3 15 4
v 4 15 4
v -5 15 3
v -4 15 3
v -3 15 3
v 3 15 3
v 4 15 3
v 5 15 3
v -5 15 -1
v -4 15 -1
v -3 15 -1
v 3 15 -1
v 4 15 -1
v 5 15 -1
v -4 15 -2
v -3 15 -2
v 3 15 -2
v 4 15 -2
v -4 16 3
v -3 16 3
v 3 16 3
v 4 16 3
v -4 16 -1
v -3 16 -1
v 3 16 -1
v 4 16 -1

# faces
f 3/3/1 2/3/1 1/3/1
f 4/3/1 2/3/1 3/3/1
f 7/6/1 6/6/1 5/6/1
f 8/6/1 6/6/1 7/6/1
f 13/6/1 10/6/1 9/6/1
f 14/6/1 10/6/1 13/6/1
f 15/6/1 12/6/1 11/6/1
f 16/6/1 12/6/1 15/6/1
f 17/6/1 15/6/1 14/6/1
f 18/6/1 15/6/1 17/6/1
f 21/4/1 20/4/1 19/4/1
f 22/4/1 20/4/1 21/4/1
f 23/4/1 21/4/1 19/4/1
f 23/5/1 22/5/1 21/5/1
f 24/4/1 20/4/1 22/4/1
f 24/5/1 22/5/1 23/5/1
f 25/4/1 23/4/1 19/4/1
f 25/2/1 24/2/1 23/2/1
f 26/4/1 20/4/1 24/4/1
f 26/2/1 24/2/1 25/2/1
f 28/4/1 25/4/1 19/4/1
f 29/1/1 26/1/1 25/1/1
f 29/4/1 25/4/1 28/4/1
f 30/4/1 20/4/1 26/4/1
f 30/1/1 26/1/1 29/1/1
f 31/4/1 20/4/1 30/4/1
f 33/6/1 28/6/1 27/6/1
f 34/6/1 28/6/1 33/6/1
f 35/6/1 32/6/1 31/6/1
f 36/6/1 32/6/1 35/6/1
f 37/7/1 35/7/1 34/7/1
f 38/7/1 35/7/1 37/7/1
f 39/7/1 35/7/1 38/7/1
f 40/7/1 35/7/1 39/7/1
f 41/5/1 38/5/1 37/5/1
f 42/2/1 39/2/1 38/2/1
f 42/5/1 38/5/1 41/5/1
f 43/5/1 40/5/1 39/5/1
f 43/2/1 39/2/1 42/2/1
f 44/5/1 40/5/1 43/5/1
f 45/2/1 42/2/1 41/2/1
f 46/7/1 43/7/1 42/7/1
f 46/2/1 42/2/1 45/2/1
f 46/7/1 44/7/1 43/7/1
f 47/7/1 46/7/1 45/7/1
f 48/7/1 44/7/1 46/7/1
f 48/7/1 46/7/1 47/7/1
f 53/6/1 50/6/1 49/6/1
f 54/6/1 50/6/1 53/6/1
f 55/6/1 52/6/1 51/6/1
f 56/6/1 52/6/1 55/6/1
f 57/6/1 55/6/1 54/6/1
f 58/6/1 55/6/1 57/6/1
f 63/6/1 60/6/1 59/6/1
f 64/6/1 60/6/1 63/6/1
f 65/6/1 62/6/1 61/6/1
f 66/6/1 62/6/1 65/6/1
f 72/6/1 68/6/1 67/6/1
f 73/6/1 68/6/1 72/6/1
f 74/6/1 70/6/1 69/6/1
f 75/6/1 70/6/1 74/6/1
f 76/3/1 72/3/1 71/3/1
f 77/3/1 72/3/1 76/3/1
f 83/6/1 79/6/1 78/6/1
f 84/6/1 79/6/1 83/6/1
f 85/6/1 81/6/1 80/6/1
f 86/6/1 81/6/1 85/6/1
f 87/3/1 83/3/1 82/3/1
f 88/3/1 83/3/1 87/3/1
f 93/6/1 90/6/1 89/6/1
f 93/6/1 92/6/1 91/6/1
f 93/6/1 91/6/1 90/6/1
f 94/6/1 92/6/1 93/6/1
f 95/6/1 92/6/1 94/6/1
f 96/6/1 92/6/1 95/6/1
f 97/6/1 95/6/1 94/6/1
f 98/6/1 95/6/1 97/6/1
f 99/6/2 100/6/2 103/6/2
f 101/6/2 102/6/2 103/6/2
f 100/6/2 101/6/2 103/6/2
f 103/6/2 102/6/2 104/6/2
f 104/6/2 102/6/2 105/6/2
f 105/6/2 102/6/2 106/6/2
f 104/6/2 105/6/2 107/6/2
f 107/6/2 105/6/2 108/6/2
f 109/6/2 110/6/2 114/6/2
f 114/6/2 110/6/2 115/6/2
f 111/6/2 112/6/2 116/6/2
f 116/6/2 112/6/2 117/6/2
f 113/3/2 114/3/2 118/3/2
f 118/3/2 114/3/2 119/3/2
f 120/6/2 121/6/2 125/6/2
f 125/6/2 121/6/2 126/6/2
f 122/6/2 123/6/2 127/6/2
f 127/6/2 123/6/2 128/6/2
f 124/3/2 125/3/2 129/3/2
f 129/3/2 125/3/2 130/3/2
f 131/6/2 132/6/2 135/6/2
f 135/6/2 132/6/2 136/6/2
f 133/6/2 134/6/2 137/6/2
f 137/6/2 134/6/2 138/6/2
f 139/4/2 140/4/2 141/4/2
f 141/4/2 140/4/2 142/4/2
f 139/4/2 141/4/2 143/4/2
f 141/5/2 142/5/2 143/5/2
f 142/4/2 140/4/2 144/4/2
f 143/5/2 142/5/2 144/5/2
f 139/4/2 143/4/2 145/4/2
f 143/2/2 144/2/2 145/2/2
f 144/4/2 140/4/2 146/4/2
f 145/2/2 144/2/2 146/2/2
f 139/4/2 145/4/2 148/4/2
f 145/1/2 146/1/2 149/1/2
f 148/4/2 145/4/2 149/4/2
f 146/4/2 140/4/2 150/4/2
f 149/1/2 146/1/2 150/1/2
f 150/4/2 140/4/2 151/4/2
f 147/6/2 148/6/2 153/6/2
f 153/6/2 148/6/2 154/6/2
f 151/6/2 152/6/2 155/6/2
f 155/6/2 152/6/2 156/6/2
f 154/7/2 155/7/2 157/7/2
f 157/7/2 155/7/2 158/7/2
f 158/7/2 155/7/2 159/7/2
f 159/7/2 155/7/2 160/7/2
f 157/5/2 158/5/2 161/5/2
f 158/2/2 159/2/2 162/2/2
f 161/5/2 158/5/2 162/5/2
f 159/5/2 160/5/2 163/5/2
f 162/2/2 159/2/2 163/2/2
f 163/5/2 160/5/2 164/5/2
f 161/2/2 162/2/2 165/2/2
f 162/7/2 163/7/2 166/7/2
f 165/2/2 162/2/2 166/2/2
f 163/7/2 164/7/2 166/7/2
f 165/7/2 166/7/2 167/7/2
f 166/7/2 164/7/2 168/7/2
f 167/7/2 166/7/2 168/7/2
f 169/6/2 170/6/2 173/6/2
f 173/6/2 170/6/2 174/6/2
f 171/6/2 172/6/2 175/6/2
f 175/6/2 172/6/2 176/6/2
f 174/6/2 175/6/2 177/6/2
f 177/6/2 175/6/2 178/6/2
f 179/6/2 180/6/2 181/6/2
f 181/6/2 180/6/2 182/6/2
f 183/6/2 184/6/2 187/6/2
f 187/6/2 184/6/2 188/6/2
f 185/6/2 186/6/2 189/6/2
f 189/6/2 186/6/2 190/6/2
f 188/6/2 189/6/2 191/6/2
f 191/6/2 189/6/2 192/6/2
f 193/3/2 194/3/2 195/3/2
f 195/3/2 194/3/2 196/3/2
f 200/3/3 198/3/3 197/3/3
f 201/3/3 198/3/3 200/3/3
f 202/3/3 198/3/3 201/3/3
f 203/3/3 198/3/3 202/3/3
f 204/3/3 200/3/3 199/3/3
f 204/3/3 201/3/3 200/3/3
f 205/3/3 201/3/3 204/3/3
f 206/5/3 202/5/3 201/5/3
f 206/3/3 201/3/3 205/3/3
f 207/1/3 203/1/3 202/1/3
f 207/5/3 202/5/3 206/5/3
f 208/1/3 203/1/3 207/1/3
f 209/3/3 206/3/3 205/3/3
f 209/3/3 208/3/3 207/3/3
f 209/3/3 207/3/3 206/3/3
f 210/3/3 208/3/3 209/3/3
f 215/6/3 212/6/3 211/6/3
f 218/6/3 215/6/3 211/6/3
f 218/6/3 216/6/3 215/6/3
f 219/6/3 216/6/3 218/6/3
f 220/6/3 216/6/3 219/6/3
f 222/6/3 218/6/3 217/6/3
f 222/6/3 219/6/3 218/6/3
f 223/6/3 219/6/3 222/6/3
f 225/6/3 222/6/3 221/6/3
f 226/6/3 222/6/3 225/6/3
f 227/6/3 225/6/3 224/6/3
f 228/6/3 225/6/3 227/6/3
f 230/6/3 229/6/3 228/6/3
f 231/6/3 229/6/3 230/6/3
f 233/6/3 232/6/3 231/6/3
f 234/6/3 232/6/3 233/6/3
f 235/6/3 232/6/3 234/6/3
f 237/6/3 214/6/3 213/6/3
f 238/6/3 214/6/3 237/6/3
f 239/6/3 236/6/3 235/6/3
f 239/6/3 235/6/3 234/6/3
f 240/6/3 236/6/3 239/6/3
f 241/6/3 239/6/3 234/6/3
f 242/6/3 239/6/3 241/6/3
f 247/3/3 244/3/3 243/3/3
f 248/3/3 244/3/3 247/3/3
f 251/6/3 246/6/3 245/6/3
f 252/6/3 246/6/3 251/6/3
f 257/6/3 249/6/3 248/6/3
f 258/6/3 249/6/3 257/6/3
f 260/4/3 251/4/3 250/4/3
f 261/4/3 251/4/3 260/4/3
f 262/4/3 251/4/3 261/4/3
f 263/4/3 251/4/3 262/4/3
f 264/7/3 253/7/3 252/7/3
f 264/5/3 254/5/3 253/5/3
f 265/2/3 255/2/3 254/2/3
f 265/5/3 254/5/3 264/5/3
f 266/7/3 256/7/3 255/7/3
f 266/2/3 255/2/3 265/2/3
f 267/7/3 256/7/3 266/7/3
f 268/6/3 259/6/3 258/6/3
f 269/6/3 259/6/3 268/6/3
f 270/4/3 260/4/3 250/4/3
f 270/5/3 261/5/3 260/5/3
f 271/2/3 262/2/3 261/2/3
f 271/5/3 261/5/3 270/5/3
f 272/1/3 263/1/3 262/1/3
f 272/2/3 262/2/3 271/2/3
f 273/1/3 263/1/3 272/1/3
f 274/7/3 265/7/3 264/7/3
f 274/7/3 266/7/3 265/7/3
f 275/7/3 266/7/3 274/7/3
f 276/4/3 273/4/3 272/4/3
f 276/4/3 271/4/3 270/4/3
f 276/4/3 270/4/3 250/4/3
f 276/4/3 272/4/3 271/4/3
f 277/4/3 273/4/3 276/4/3
f 278/4/3 273/4/3 277/4/3
f 279/4/3 273/4/3 278/4/3
f 280/7/3 274/7/3 264/7/3
f 280/7/3 264/7/3 252/7/3
f 281/7/3 274/7/3 280/7/3
f 282/4/3 276/4/3 250/4/3
f 282/5/3 277/5/3 276/5/3
f 283/2/3 278/2/3 277/2/3
f 283/5/3 277/5/3 282/5/3
f 284/1/3 279/1/3 278/1/3
f 284/2/3 278/2/3 283/2/3
f 285/1/3 279/1/3 284/1/3
f 286/7/3 280/7/3 252/7/3
f 288/4/3 283/4/3 282/4/3
f 288/4/3 282/4/3 250/4/3
f 288/4/3 285/4/3 284/4/3
f 288/4/3 284/4/3 283/4/3
f 289/4/3 285/4/3 288/4/3
f 290/4/3 285/4/3 289/4/3
f 291/4/3 285/4/3 290/4/3
f 292/7/3 287/7/3 286/7/3
f 294/4/3 288/4/3 250/4/3
f 294/5/3 289/5/3 288/5/3
f 295/2/3 290/2/3 289/2/3
f 295/5/3 289/5/3 294/5/3
f 296/1/3 291/1/3 290/1/3
f 296/2/3 290/2/3 295/2/3
f 297/1/3 291/1/3 296/1/3
f 298/7/3 286/7/3 252/7/3
f 298/7/3 292/7/3 286/7/3
f 298/7/3 293/7/3 292/7/3
f 299/7/3 293/7/3 298/7/3
f 300/7/3 293/7/3 299/7/3
f 304/4/3 295/4/3 294/4/3
f 304/4/3 297/4/3 296/4/3
f 304/4/3 296/4/3 295/4/3
f 304/4/3 294/4/3 250/4/3
f 305/4/3 297/4/3 304/4/3
f 306/7/3 298/7/3 252/7/3
f 307/5/3 299/5/3 298/5/3
f 307/7/3 298/7/3 306/7/3
f 308/2/3 300/2/3 299/2/3
f 308/5/3 299/5/3 307/5/3
f 309/7/3 301/7/3 300/7/3
f 309/2/3 300/2/3 308/2/3
f 310/7/3 301/7/3 309/7/3
f 312/6/3 303/6/3 302/6/3
f 313/6/3 303/6/3 312/6/3
f 314/6/3 306/6/3 305/6/3
f 315/6/3 306/6/3 314/6/3
f 317/6/3 312/6/3 311/6/3
f 318/6/3 312/6/3 317/6/3
f 319/3/3 317/3/3 316/3/3
f 320/3/3 317/3/3 319/3/3
f 321/3/4 322/3/4 325/3/4
f 325/3/4 322/3/4 326/3/4
f 323/6/4 324/6/4 329/6/4
f 329/6/4 324/6/4 330/6/4
f 326/6/4 327/6/4 334/6/4
f 334/6/4 327/6/4 335/6/4
f 328/4/4 329/4/4 337/4/4
f 337/4/4 329/4/4 338/4/4
f 338/4/4 329/4/4 339/4/4
f 339/4/4 329/4/4 340/4/4
f 330/7/4 331/7/4 341/7/4
f 331/5/4 332/5/4 341/5/4
f 332/7/4 333/7/4 342/7/4
f 341/5/4 332/5/4 342/5/4
f 342/7/4 333/7/4 343/7/4
f 343/7/4 333/7/4 344/7/4
f 335/6/4 336/6/4 345/6/4
f 345/6/4 336/6/4 346/6/4
f 328/4/4 337/4/4 347/4/4
f 337/5/4 338/5/4 347/5/4
f 338/2/4 339/2/4 348/2/4
f 347/5/4 338/5/4 348/5/4
f 339/1/4 340/1/4 349/1/4
f 348/2/4 339/2/4 349/2/4
f 349/1/4 340/1/4 350/1/4
f 342/1/4 343/1/4 351/1/4
f 341/7/4 342/7/4 351/7/4
f 351/1/4 343/1/4 352/1/4
f 347/4/4 348/4/4 353/4/4
f 328/4/4 347/4/4 353/4/4
f 349/4/4 350/4/4 353/4/4
f 348/4/4 349/4/4 353/4/4
f 353/4/4 350/4/4 354/4/4
f 354/4/4 350/4/4 355/4/4
f 355/4/4 350/4/4 356/4/4
f 330/7/4 341/7/4 357/7/4
f 341/7/4 351/7/4 357/7/4
f 357/7/4 351/7/4 358/7/4
f 328/4/4 353/4/4 359/4/4
f 353/5/4 354/5/4 359/5/4
f 354/2/4 355/2/4 360/2/4
f 359/5/4 354/5/4 360/5/4
f 355/1/4 356/1/4 361/1/4
f 360/2/4 355/2/4 361/2/4
f 361/1/4 356/1/4 362/1/4
f 330/7/4 357/7/4 363/7/4
f 359/4/4 360/4/4 365/4/4
f 328/4/4 359/4/4 365/4/4
f 361/4/4 362/4/4 365/4/4
f 360/4/4 361/4/4 365/4/4
f 365/4/4 362/4/4 366/4/4
f 366/4/4 362/4/4 367/4/4
f 367/4/4 362/4/4 368/4/4
f 363/7/4 364/7/4 369/7/4
f 328/4/4 365/4/4 371/4/4
f 365/5/4 366/5/4 371/5/4
f 366/2/4 367/2/4 372/2/4
f 371/5/4 366/5/4 372/5/4
f 367/1/4 368/1/4 373/1/4
f 372/2/4 367/2/4 373/2/4
f 373/1/4 368/1/4 374/1/4
f 330/7/4 363/7/4 375/7/4
f 363/7/4 369/7/4 375/7/4
f 369/1/4 370/1/4 376/1/4
f 375/7/4 369/7/4 376/7/4
f 376/1/4 370/1/4 377/1/4
f 371/4/4 372/4/4 381/4/4
f 373/4/4 374/4/4 381/4/4
f 372/4/4 373/4/4 381/4/4
f 328/4/4 371/4/4 381/4/4
f 381/4/4 374/4/4 382/4/4
f 330/7/4 375/7/4 383/7/4
f 375/5/4 376/5/4 384/5/4
f 383/7/4 375/7/4 384/7/4
f 376/7/4 377/7/4 385/7/4
f 384/5/4 376/5/4 385/5/4
f 377/7/4 378/7/4 385/7/4
f 385/7/4 378/7/4 386/7/4
f 379/6/4 380/6/4 388/6/4
f 388/6/4 380/6/4 389/6/4
f 382/6/4 383/6/4 390/6/4
f 390/6/4 383/6/4 391/6/4
f 387/6/4 388/6/4 393/6/4
f 393/6/4 388/6/4 394/6/4
f 392/3/4 393/3/4 395/3/4
f 395/3/4 393/3/4 396/3/4
f 397/6/4 398/6/4 401/6/4
f 397/6/4 401/6/4 404/6/4
f 401/6/4 402/6/4 404/6/4
f 404/6/4 402/6/4 405/6/4
f 405/6/4 402/6/4 406/6/4
f 403/6/4 404/6/4 408/6/4
f 404/6/4 405/6/4 408/6/4
f 408/6/4 405/6/4 409/6/4
f 407/6/4 408/6/4 411/6/4
f 408/3/4 409/3/4 412/3/4
f 411/6/4 408/6/4 412/6/4
f 410/6/4 411/6/4 413/6/4
f 411/3/4 412/3/4 414/3/4
f 413/6/4 411/6/4 414/6/4
f 412/3/4 409/3/4 415/3/4
f 414/3/4 412/3/4 415/3/4
f 414/6/4 415/6/4 416/6/4
f 415/3/4 409/3/4 417/3/4
f 416/6/4 415/6/4 417/6/4
f 417/3/4 409/3/4 418/3/4
f 417/6/4 418/6/4 419/6/4
f 419/6/4 418/6/4 420/6/4
f 420/6/4 418/6/4 421/6/4
f 399/6/4 400/6/4 423/6/4
f 423/6/4 400/6/4 424/6/4
f 421/6/4 422/6/4 425/6/4
f 420/6/4 421/6/4 425/6/4
f 425/6/4 422/6/4 426/6/4
f 420/6/4 425/6/4 427/6/4
f 427/6/4 425/6/4 428/6/4
f 431/4/5 430/4/5 429/4/5
f 432/4/5 430/4/5 431/4/5
f 436/6/5 434/6/5 433/6/5
f 437/6/5 434/6/5 436/6/5
f 438/6/5 434/6/5 437/6/5
f 439/6/5 434/6/5 438/6/5
f 440/6/5 434/6/5 439/6/5
f 441/6/5 434/6/5 440/6/5
f 442/6/5 434/6/5 441/6/5
f 443/6/5 434/6/5 442/6/5
f 445/6/5 436/6/5 435/6/5
f 446/6/5 444/6/5 443/6/5
f 447/6/5 445/6/5 435/6/5
f 448/6/5 444/6/5 446/6/5
f 449/6/5 447/6/5 435/6/5
f 450/6/5 447/6/5 449/6/5
f 457/6/5 444/6/5 448/6/5
f 458/6/5 444/6/5 457/6/5
f 459/6/5 456/6/5 455/6/5
f 459/6/5 457/6/5 456/6/5
f 459/6/5 451/6/5 450/6/5
f 459/6/5 455/6/5 454/6/5
f 459/6/5 454/6/5 453/6/5
f 459/6/5 453/6/5 452/6/5
f 459/6/5 452/6/5 451/6/5
f 460/6/5 457/6/5 459/6/5
f 463/6/5 462/6/5 461/6/5
f 464/6/5 462/6/5 463/6/5
f 467/6/5 466/6/5 465/6/5
f 468/6/5 466/6/5 467/6/5
f 472/3/5 470/3/5 469/3/5
f 473/3/5 470/3/5 472/3/5
f 475/6/5 472/6/5 471/6/5
f 476/6/5 472/6/5 475/6/5
f 477/6/5 474/6/5 473/6/5
f 478/6/5 474/6/5 477/6/5
f 483/6/5 480/6/5 479/6/5
f 484/6/5 480/6/5 483/6/5
f 485/6/5 482/6/5 481/6/5
f 486/6/5 482/6/5 485/6/5
f 492/3/5 488/3/5 487/3/5
f 493/3/5 488/3/5 492/3/5
f 494/3/5 490/3/5 489/3/5
f 495/3/5 490/3/5 494/3/5
f 497/6/5 492/6/5 491/6/5
f 498/6/5 492/6/5 497/6/5
f 499/6/5 496/6/5 495/6/5
f 500/6/5 496/6/5 499/6/5
f 505/6/5 502/6/5 501/6/5
f 506/6/5 502/6/5 505/6/5
f 507/6/5 504/6/5 503/6/5
f 508/6/5 504/6/5 507/6/5
f 514/6/5 510/6/5 509/6/5
f 515/6/5 510/6/5 514/6/5
f 516/6/5 510/6/5 515/6/5
f 517/6/5 512/6/5 511/6/5
f 518/6/5 512/6/5 517/6/5
f 519/6/5 512/6/5 518/6/5
f 521/3/5 514/3/5 513/3/5
f 522/6/5 515/6/5 514/6/5
f 522/3/5 514/3/5 521/3/5
f 523/6/5 515/6/5 522/6/5
f 526/6/5 519/6/5 518/6/5
f 527/3/5 520/3/5 519/3/5
f 527/6/5 519/6/5 526/6/5
f 528/3/5 520/3/5 527/3/5
f 529/6/5 524/6/5 523/6/5
f 529/6/5 523/6/5 522/6/5
f 530/6/5 524/6/5 529/6/5
f 531/6/5 526/6/5 525/6/5
f 531/6/5 527/6/5 526/6/5
f 532/6/5 527/6/5 531/6/5
f 533/6/6 534/6/6 536/6/6
f 536/6/6 534/6/6 537/6/6
f 535/6/6 536/6/6 539/6/6
f 539/6/6 536/6/6 540/6/6
f 537/6/6 538/6/6 541/6/6
f 541/6/6 538/6/6 542/6/6
f 540/6/6 541/6/6 543/6/6
f 543/6/6 541/6/6 544/6/6
f 545/3/6 546/3/6 552/3/6
f 546/1/6 547/1/6 553/1/6
f 552/3/6 546/3/6 553/3/6
f 547/3/6 548/3/6 554/3/6
f 553/1/6 547/1/6 554/1/6
f 554/3/6 548/3/6 555/3/6
f 549/6/6 550/6/6 560/6/6
f 560/6/6 550/6/6 561/6/6
f 551/6/6 552/6/6 562/6/6
f 552/3/6 553/3/6 563/3/6
f 562/6/6 552/6/6 563/6/6
f 553/3/6 554/3/6 563/3/6
f 554/3/6 555/3/6 563/3/6
f 555/6/6 556/6/6 564/6/6
f 563/3/6 555/3/6 564/3/6
f 564/6/6 556/6/6 565/6/6
f 557/6/6 558/6/6 566/6/6
f 566/6/6 558/6/6 567/6/6
f 559/3/6 560/3/6 569/3/6
f 569/3/6 560/3/6 570/3/6
f 564/3/6 565/3/6 572/3/6
f 562/3/6 563/3/6 572/3/6
f 563/3/6 564/3/6 572/3/6
f 572/3/6 565/3/6 573/3/6
f 573/3/6 565/3/6 574/3/6
f 574/3/6 565/3/6 575/3/6
f 567/3/6 568/3/6 577/3/6
f 577/3/6 568/3/6 578/3/6
f 570/6/6 571/6/6 579/6/6
f 579/6/6 571/6/6 580/6/6
f 572/6/6 573/6/6 581/6/6
f 573/3/6 574/3/6 582/3/6
f 581/6/6 573/6/6 582/6/6
f 574/6/6 575/6/6 583/6/6
f 582/3/6 574/3/6 583/3/6
f 583/6/6 575/6/6 584/6/6
f 576/6/6 577/6/6 585/6/6
f 585/6/6 577/6/6 586/6/6
f 587/6/6 588/6/6 592/6/6
f 592/6/6 588/6/6 593/6/6
f 589/6/6 590/6/6 594/6/6
f 594/6/6 590/6/6 595/6/6
f 591/6/6 592/6/6 597/6/6
f 597/6/6 592/6/6 598/6/6
f 595/6/6 596/6/6 601/6/6
f 601/6/6 596/6/6 602/6/6
f 598/6/6 599/6/6 603/6/6
f 603/6/6 599/6/6 604/6/6
f 600/6/6 601/6/6 605/6/6
f 605/6/6 601/6/6 606/6/6
f 607/6/6 608/6/6 611/6/6
f 611/6/6 608/6/6 612/6/6
f 609/6/6 610/6/6 613/6/6
f 613/6/6 610/6/6 614/6/6
