# MagicaVoxel @ Ephtracy

# group
g Fence

# material
mtllib Fence.mtl
usemtl palette

# normals
vn -1 0 0
vn 1 0 0
vn 0 0 1
vn 0 0 -1
vn 0 -1 0
vn 0 1 0

# texcoords
vt 0.947266 0.5
vt 0.951172 0.5
vt 0.955078 0.5

# verts
v -11 0 1.5
v -11 0 -1.5
v -11 11 1.5
v -11 11 -1.5
v -6 0 1.5
v -6 0 0.5
v -6 3 0.5
v -6 4 0.5
v -6 5 0.5
v -6 6 0.5
v -6 7 0.5
v -6 8 0.5
v -6 10 1.5
v -6 10 0.5
v -5 10 1.5
v -5 10 0.5
v -5 11 1.5
v -5 11 0.5
v -1 0 1.5
v -1 0 0.5
v -1 3 0.5
v -1 4 0.5
v -1 5 0.5
v -1 6 0.5
v -1 7 0.5
v -1 8 0.5
v -1 10 1.5
v -1 10 0.5
v 0 10 1.5
v 0 10 0.5
v 0 11 1.5
v 0 11 0.5
v 4 0 1.5
v 4 0 0.5
v 4 3 0.5
v 4 4 0.5
v 4 5 0.5
v 4 6 0.5
v 4 7 0.5
v 4 8 0.5
v 4 10 1.5
v 4 10 0.5
v 5 10 1.5
v 5 10 0.5
v 5 11 1.5
v 5 11 0.5
v 8 0 1.5
v 8 0 -1.5
v 8 3 0.5
v 8 3 -0.5
v 8 4 0.5
v 8 4 -0.5
v 8 5 0.5
v 8 5 -0.5
v 8 6 0.5
v 8 6 -0.5
v 8 7 0.5
v 8 7 -0.5
v 8 8 0.5
v 8 8 -0.5
v 8 11 1.5
v 8 11 -1.5
v -8 0 1.5
v -8 0 -1.5
v -8 3 0.5
v -8 3 -0.5
v -8 4 0.5
v -8 4 -0.5
v -8 5 0.5
v -8 5 -0.5
v -8 6 0.5
v -8 6 -0.5
v -8 7 0.5
v -8 7 -0.5
v -8 8 0.5
v -8 8 -0.5
v -8 11 1.5
v -8 11 -1.5
v -4 10 1.5
v -4 10 0.5
v -4 11 1.5
v -4 11 0.5
v -3 0 1.5
v -3 0 0.5
v -3 3 0.5
v -3 4 0.5
v -3 5 0.5
v -3 6 0.5
v -3 7 0.5
v -3 8 0.5
v -3 10 1.5
v -3 10 0.5
v 1 10 1.5
v 1 10 0.5
v 1 11 1.5
v 1 11 0.5
v 2 0 1.5
v 2 0 0.5
v 2 3 0.5
v 2 4 0.5
v 2 5 0.5
v 2 6 0.5
v 2 7 0.5
v 2 8 0.5
v 2 10 1.5
v 2 10 0.5
v 6 10 1.5
v 6 10 0.5
v 6 11 1.5
v 6 11 0.5
v 7 0 1.5
v 7 0 0.5
v 7 3 0.5
v 7 4 0.5
v 7 5 0.5
v 7 6 0.5
v 7 7 0.5
v 7 8 0.5
v 7 10 1.5
v 7 10 0.5
v 11 0 1.5
v 11 0 -1.5
v 11 11 1.5
v 11 11 -1.5
v -11 0 1.5
v -11 11 1.5
v -8 0 1.5
v -8 11 1.5
v -6 0 1.5
v -6 10 1.5
v -5 10 1.5
v -5 11 1.5
v -4 10 1.5
v -4 11 1.5
v -3 0 1.5
v -3 10 1.5
v -1 0 1.5
v -1 10 1.5
v 0 10 1.5
v 0 11 1.5
v 1 10 1.5
v 1 11 1.5
v 2 0 1.5
v 2 10 1.5
v 4 0 1.5
v 4 10 1.5
v 5 10 1.5
v 5 11 1.5
v 6 10 1.5
v 6 11 1.5
v 7 0 1.5
v 7 10 1.5
v 8 0 1.5
v 8 11 1.5
v 11 0 1.5
v 11 11 1.5
v -8 3 0.5
v -8 4 0.5
v -8 5 0.5
v -8 6 0.5
v -8 7 0.5
v -8 8 0.5
v -6 3 0.5
v -6 4 0.5
v -6 5 0.5
v -6 6 0.5
v -6 7 0.5
v -6 8 0.5
v -3 3 0.5
v -3 4 0.5
v -3 5 0.5
v -3 6 0.5
v -3 7 0.5
v -3 8 0.5
v -1 3 0.5
v -1 4 0.5
v -1 5 0.5
v -1 6 0.5
v -1 7 0.5
v -1 8 0.5
v 2 3 0.5
v 2 4 0.5
v 2 5 0.5
v 2 6 0.5
v 2 7 0.5
v 2 8 0.5
v 4 3 0.5
v 4 4 0.5
v 4 5 0.5
v 4 6 0.5
v 4 7 0.5
v 4 8 0.5
v 7 3 0.5
v 7 4 0.5
v 7 5 0.5
v 7 6 0.5
v 7 7 0.5
v 7 8 0.5
v 8 3 0.5
v 8 4 0.5
v 8 5 0.5
v 8 6 0.5
v 8 7 0.5
v 8 8 0.5
v -6 0 0.5
v -6 3 0.5
v -6 4 0.5
v -6 5 0.5
v -6 6 0.5
v -6 7 0.5
v -6 8 0.5
v -6 10 0.5
v -5 10 0.5
v -5 11 0.5
v -4 10 0.5
v -4 11 0.5
v -3 0 0.5
v -3 3 0.5
v -3 4 0.5
v -3 5 0.5
v -3 6 0.5
v -3 7 0.5
v -3 8 0.5
v -3 10 0.5
v -1 0 0.5
v -1 3 0.5
v -1 4 0.5
v -1 5 0.5
v -1 6 0.5
v -1 7 0.5
v -1 8 0.5
v -1 10 0.5
v 0 10 0.5
v 0 11 0.5
v 1 10 0.5
v 1 11 0.5
v 2 0 0.5
v 2 3 0.5
v 2 4 0.5
v 2 5 0.5
v 2 6 0.5
v 2 7 0.5
v 2 8 0.5
v 2 10 0.5
v 4 0 0.5
v 4 3 0.5
v 4 4 0.5
v 4 5 0.5
v 4 6 0.5
v 4 7 0.5
v 4 8 0.5
v 4 10 0.5
v 5 10 0.5
v 5 11 0.5
v 6 10 0.5
v 6 11 0.5
v 7 0 0.5
v 7 3 0.5
v 7 4 0.5
v 7 5 0.5
v 7 6 0.5
v 7 7 0.5
v 7 8 0.5
v 7 10 0.5
v -8 3 -0.5
v -8 4 -0.5
v -8 5 -0.5
v -8 6 -0.5
v -8 7 -0.5
v -8 8 -0.5
v 8 3 -0.5
v 8 4 -0.5
v 8 5 -0.5
v 8 6 -0.5
v 8 7 -0.5
v 8 8 -0.5
v -11 0 -1.5
v -11 11 -1.5
v -8 0 -1.5
v -8 11 -1.5
v 8 0 -1.5
v 8 11 -1.5
v 11 0 -1.5
v 11 11 -1.5
v -11 0 1.5
v -8 0 1.5
v -6 0 1.5
v -3 0 1.5
v -1 0 1.5
v 2 0 1.5
v 4 0 1.5
v 7 0 1.5
v 8 0 1.5
v 11 0 1.5
v -6 0 0.5
v -3 0 0.5
v -1 0 0.5
v 2 0 0.5
v 4 0 0.5
v 7 0 0.5
v -11 0 -1.5
v -8 0 -1.5
v 8 0 -1.5
v 11 0 -1.5
v -8 3 0.5
v -6 3 0.5
v -3 3 0.5
v -1 3 0.5
v 2 3 0.5
v 4 3 0.5
v 7 3 0.5
v 8 3 0.5
v -8 3 -0.5
v 8 3 -0.5
v -8 5 0.5
v -6 5 0.5
v -3 5 0.5
v -1 5 0.5
v 2 5 0.5
v 4 5 0.5
v 7 5 0.5
v 8 5 0.5
v -8 5 -0.5
v 8 5 -0.5
v -8 7 0.5
v -6 7 0.5
v -3 7 0.5
v -1 7 0.5
v 2 7 0.5
v 4 7 0.5
v 7 7 0.5
v 8 7 0.5
v -8 7 -0.5
v 8 7 -0.5
v -8 4 0.5
v -6 4 0.5
v -3 4 0.5
v -1 4 0.5
v 2 4 0.5
v 4 4 0.5
v 7 4 0.5
v 8 4 0.5
v -8 4 -0.5
v 8 4 -0.5
v -8 6 0.5
v -6 6 0.5
v -3 6 0.5
v -1 6 0.5
v 2 6 0.5
v 4 6 0.5
v 7 6 0.5
v 8 6 0.5
v -8 6 -0.5
v 8 6 -0.5
v -8 8 0.5
v -6 8 0.5
v -3 8 0.5
v -1 8 0.5
v 2 8 0.5
v 4 8 0.5
v 7 8 0.5
v 8 8 0.5
v -8 8 -0.5
v 8 8 -0.5
v -6 10 1.5
v -5 10 1.5
v -4 10 1.5
v -3 10 1.5
v -1 10 1.5
v 0 10 1.5
v 1 10 1.5
v 2 10 1.5
v 4 10 1.5
v 5 10 1.5
v 6 10 1.5
v 7 10 1.5
v -6 10 0.5
v -5 10 0.5
v -4 10 0.5
v -3 10 0.5
v -1 10 0.5
v 0 10 0.5
v 1 10 0.5
v 2 10 0.5
v 4 10 0.5
v 5 10 0.5
v 6 10 0.5
v 7 10 0.5
v -11 11 1.5
v -8 11 1.5
v -5 11 1.5
v -4 11 1.5
v 0 11 1.5
v 1 11 1.5
v 5 11 1.5
v 6 11 1.5
v 8 11 1.5
v 11 11 1.5
v -5 11 0.5
v -4 11 0.5
v 0 11 0.5
v 1 11 0.5
v 5 11 0.5
v 6 11 0.5
v -11 11 -1.5
v -8 11 -1.5
v 8 11 -1.5
v 11 11 -1.5

# faces
f 3/1/1 2/1/1 1/1/1
f 4/1/1 2/1/1 3/1/1
f 7/2/1 6/2/1 5/2/1
f 8/2/1 7/2/1 5/2/1
f 9/2/1 8/2/1 5/2/1
f 10/2/1 9/2/1 5/2/1
f 11/2/1 10/2/1 5/2/1
f 12/2/1 11/2/1 5/2/1
f 13/2/1 12/2/1 5/2/1
f 14/2/1 12/2/1 13/2/1
f 17/2/1 16/2/1 15/2/1
f 18/2/1 16/2/1 17/2/1
f 21/2/1 20/2/1 19/2/1
f 22/2/1 21/2/1 19/2/1
f 23/2/1 22/2/1 19/2/1
f 24/2/1 23/2/1 19/2/1
f 25/2/1 24/2/1 19/2/1
f 26/2/1 25/2/1 19/2/1
f 27/2/1 26/2/1 19/2/1
f 28/2/1 26/2/1 27/2/1
f 31/2/1 30/2/1 29/2/1
f 32/2/1 30/2/1 31/2/1
f 35/2/1 34/2/1 33/2/1
f 36/2/1 35/2/1 33/2/1
f 37/2/1 36/2/1 33/2/1
f 38/2/1 37/2/1 33/2/1
f 39/2/1 38/2/1 33/2/1
f 40/2/1 39/2/1 33/2/1
f 41/2/1 40/2/1 33/2/1
f 42/2/1 40/2/1 41/2/1
f 45/2/1 44/2/1 43/2/1
f 46/2/1 44/2/1 45/2/1
f 49/1/1 48/1/1 47/1/1
f 50/1/1 48/1/1 49/1/1
f 51/1/1 49/1/1 47/1/1
f 52/1/1 48/1/1 50/1/1
f 53/1/1 51/1/1 47/1/1
f 53/1/1 52/1/1 51/1/1
f 54/1/1 48/1/1 52/1/1
f 54/1/1 52/1/1 53/1/1
f 55/1/1 53/1/1 47/1/1
f 56/1/1 48/1/1 54/1/1
f 57/1/1 55/1/1 47/1/1
f 57/1/1 56/1/1 55/1/1
f 58/1/1 48/1/1 56/1/1
f 58/1/1 56/1/1 57/1/1
f 59/1/1 57/1/1 47/1/1
f 60/1/1 48/1/1 58/1/1
f 61/1/1 59/1/1 47/1/1
f 61/1/1 60/1/1 59/1/1
f 62/1/1 48/1/1 60/1/1
f 62/1/1 60/1/1 61/1/1
f 63/1/2 64/1/2 65/1/2
f 65/1/2 64/1/2 66/1/2
f 63/1/2 65/1/2 67/1/2
f 66/1/2 64/1/2 68/1/2
f 63/1/2 67/1/2 69/1/2
f 67/1/2 68/1/2 69/1/2
f 68/1/2 64/1/2 70/1/2
f 69/1/2 68/1/2 70/1/2
f 63/1/2 69/1/2 71/1/2
f 70/1/2 64/1/2 72/1/2
f 63/1/2 71/1/2 73/1/2
f 71/1/2 72/1/2 73/1/2
f 72/1/2 64/1/2 74/1/2
f 73/1/2 72/1/2 74/1/2
f 63/1/2 73/1/2 75/1/2
f 74/1/2 64/1/2 76/1/2
f 63/1/2 75/1/2 77/1/2
f 75/1/2 76/1/2 77/1/2
f 76/1/2 64/1/2 78/1/2
f 77/1/2 76/1/2 78/1/2
f 79/2/2 80/2/2 81/2/2
f 81/2/2 80/2/2 82/2/2
f 83/2/2 84/2/2 85/2/2
f 83/2/2 85/2/2 86/2/2
f 83/2/2 86/2/2 87/2/2
f 83/2/2 87/2/2 88/2/2
f 83/2/2 88/2/2 89/2/2
f 83/2/2 89/2/2 90/2/2
f 83/2/2 90/2/2 91/2/2
f 91/2/2 90/2/2 92/2/2
f 93/2/2 94/2/2 95/2/2
f 95/2/2 94/2/2 96/2/2
f 97/2/2 98/2/2 99/2/2
f 97/2/2 99/2/2 100/2/2
f 97/2/2 100/2/2 101/2/2
f 97/2/2 101/2/2 102/2/2
f 97/2/2 102/2/2 103/2/2
f 97/2/2 103/2/2 104/2/2
f 97/2/2 104/2/2 105/2/2
f 105/2/2 104/2/2 106/2/2
f 107/2/2 108/2/2 109/2/2
f 109/2/2 108/2/2 110/2/2
f 111/2/2 112/2/2 113/2/2
f 111/2/2 113/2/2 114/2/2
f 111/2/2 114/2/2 115/2/2
f 111/2/2 115/2/2 116/2/2
f 111/2/2 116/2/2 117/2/2
f 111/2/2 117/2/2 118/2/2
f 111/2/2 118/2/2 119/2/2
f 119/2/2 118/2/2 120/2/2
f 121/1/2 122/1/2 123/1/2
f 123/1/2 122/1/2 124/1/2
f 127/1/3 126/1/3 125/1/3
f 128/1/3 126/1/3 127/1/3
f 131/2/3 130/2/3 129/2/3
f 133/2/3 131/2/3 129/2/3
f 133/2/3 132/2/3 131/2/3
f 134/2/3 132/2/3 133/2/3
f 135/2/3 133/2/3 129/2/3
f 136/2/3 133/2/3 135/2/3
f 139/2/3 138/2/3 137/2/3
f 141/2/3 139/2/3 137/2/3
f 141/2/3 140/2/3 139/2/3
f 142/2/3 140/2/3 141/2/3
f 143/2/3 141/2/3 137/2/3
f 144/2/3 141/2/3 143/2/3
f 147/2/3 146/2/3 145/2/3
f 149/2/3 147/2/3 145/2/3
f 149/2/3 148/2/3 147/2/3
f 150/2/3 148/2/3 149/2/3
f 151/2/3 149/2/3 145/2/3
f 152/2/3 149/2/3 151/2/3
f 155/1/3 154/1/3 153/1/3
f 156/1/3 154/1/3 155/1/3
f 163/3/3 158/3/3 157/3/3
f 164/3/3 158/3/3 163/3/3
f 165/3/3 160/3/3 159/3/3
f 166/3/3 160/3/3 165/3/3
f 167/3/3 162/3/3 161/3/3
f 168/3/3 162/3/3 167/3/3
f 175/3/3 170/3/3 169/3/3
f 176/3/3 170/3/3 175/3/3
f 177/3/3 172/3/3 171/3/3
f 178/3/3 172/3/3 177/3/3
f 179/3/3 174/3/3 173/3/3
f 180/3/3 174/3/3 179/3/3
f 187/3/3 182/3/3 181/3/3
f 188/3/3 182/3/3 187/3/3
f 189/3/3 184/3/3 183/3/3
f 190/3/3 184/3/3 189/3/3
f 191/3/3 186/3/3 185/3/3
f 192/3/3 186/3/3 191/3/3
f 199/3/3 194/3/3 193/3/3
f 200/3/3 194/3/3 199/3/3
f 201/3/3 196/3/3 195/3/3
f 202/3/3 196/3/3 201/3/3
f 203/3/3 198/3/3 197/3/3
f 204/3/3 198/3/3 203/3/3
f 211/2/4 212/2/4 213/2/4
f 211/2/4 213/2/4 215/2/4
f 213/2/4 214/2/4 215/2/4
f 215/2/4 214/2/4 216/2/4
f 205/2/4 206/2/4 217/2/4
f 217/2/4 206/2/4 218/2/4
f 207/2/4 208/2/4 219/2/4
f 219/2/4 208/2/4 220/2/4
f 209/2/4 210/2/4 221/2/4
f 221/2/4 210/2/4 222/2/4
f 211/2/4 215/2/4 223/2/4
f 223/2/4 215/2/4 224/2/4
f 231/2/4 232/2/4 233/2/4
f 231/2/4 233/2/4 235/2/4
f 233/2/4 234/2/4 235/2/4
f 235/2/4 234/2/4 236/2/4
f 225/2/4 226/2/4 237/2/4
f 237/2/4 226/2/4 238/2/4
f 227/2/4 228/2/4 239/2/4
f 239/2/4 228/2/4 240/2/4
f 229/2/4 230/2/4 241/2/4
f 241/2/4 230/2/4 242/2/4
f 231/2/4 235/2/4 243/2/4
f 243/2/4 235/2/4 244/2/4
f 251/2/4 252/2/4 253/2/4
f 251/2/4 253/2/4 255/2/4
f 253/2/4 254/2/4 255/2/4
f 255/2/4 254/2/4 256/2/4
f 245/2/4 246/2/4 257/2/4
f 257/2/4 246/2/4 258/2/4
f 247/2/4 248/2/4 259/2/4
f 259/2/4 248/2/4 260/2/4
f 249/2/4 250/2/4 261/2/4
f 261/2/4 250/2/4 262/2/4
f 251/2/4 255/2/4 263/2/4
f 263/2/4 255/2/4 264/2/4
f 265/3/4 266/3/4 271/3/4
f 271/3/4 266/3/4 272/3/4
f 267/3/4 268/3/4 273/3/4
f 273/3/4 268/3/4 274/3/4
f 269/3/4 270/3/4 275/3/4
f 275/3/4 270/3/4 276/3/4
f 277/1/4 278/1/4 279/1/4
f 279/1/4 278/1/4 280/1/4
f 281/1/4 282/1/4 283/1/4
f 283/1/4 282/1/4 284/1/4
f 295/2/5 288/2/5 287/2/5
f 296/2/5 288/2/5 295/2/5
f 297/2/5 290/2/5 289/2/5
f 298/2/5 290/2/5 297/2/5
f 299/2/5 292/2/5 291/2/5
f 300/2/5 292/2/5 299/2/5
f 301/1/5 286/1/5 285/1/5
f 302/1/5 286/1/5 301/1/5
f 303/1/5 294/1/5 293/1/5
f 304/1/5 294/1/5 303/1/5
f 313/3/5 306/3/5 305/3/5
f 313/3/5 312/3/5 311/3/5
f 313/3/5 311/3/5 310/3/5
f 313/3/5 310/3/5 309/3/5
f 313/3/5 309/3/5 308/3/5
f 313/3/5 308/3/5 307/3/5
f 313/3/5 307/3/5 306/3/5
f 314/3/5 312/3/5 313/3/5
f 323/3/5 316/3/5 315/3/5
f 323/3/5 322/3/5 321/3/5
f 323/3/5 321/3/5 320/3/5
f 323/3/5 320/3/5 319/3/5
f 323/3/5 319/3/5 318/3/5
f 323/3/5 318/3/5 317/3/5
f 323/3/5 317/3/5 316/3/5
f 324/3/5 322/3/5 323/3/5
f 333/3/5 326/3/5 325/3/5
f 333/3/5 332/3/5 331/3/5
f 333/3/5 331/3/5 330/3/5
f 333/3/5 330/3/5 329/3/5
f 333/3/5 329/3/5 328/3/5
f 333/3/5 328/3/5 327/3/5
f 333/3/5 327/3/5 326/3/5
f 334/3/5 332/3/5 333/3/5
f 335/3/6 336/3/6 343/3/6
f 341/3/6 342/3/6 343/3/6
f 340/3/6 341/3/6 343/3/6
f 339/3/6 340/3/6 343/3/6
f 338/3/6 339/3/6 343/3/6
f 337/3/6 338/3/6 343/3/6
f 336/3/6 337/3/6 343/3/6
f 343/3/6 342/3/6 344/3/6
f 345/3/6 346/3/6 353/3/6
f 351/3/6 352/3/6 353/3/6
f 350/3/6 351/3/6 353/3/6
f 349/3/6 350/3/6 353/3/6
f 348/3/6 349/3/6 353/3/6
f 347/3/6 348/3/6 353/3/6
f 346/3/6 347/3/6 353/3/6
f 353/3/6 352/3/6 354/3/6
f 355/3/6 356/3/6 363/3/6
f 361/3/6 362/3/6 363/3/6
f 360/3/6 361/3/6 363/3/6
f 359/3/6 360/3/6 363/3/6
f 358/3/6 359/3/6 363/3/6
f 357/3/6 358/3/6 363/3/6
f 356/3/6 357/3/6 363/3/6
f 363/3/6 362/3/6 364/3/6
f 365/2/6 366/2/6 377/2/6
f 377/2/6 366/2/6 378/2/6
f 367/2/6 368/2/6 379/2/6
f 379/2/6 368/2/6 380/2/6
f 369/2/6 370/2/6 381/2/6
f 381/2/6 370/2/6 382/2/6
f 371/2/6 372/2/6 383/2/6
f 383/2/6 372/2/6 384/2/6
f 373/2/6 374/2/6 385/2/6
f 385/2/6 374/2/6 386/2/6
f 375/2/6 376/2/6 387/2/6
f 387/2/6 376/2/6 388/2/6
f 391/2/6 392/2/6 399/2/6
f 399/2/6 392/2/6 400/2/6
f 393/2/6 394/2/6 401/2/6
f 401/2/6 394/2/6 402/2/6
f 395/2/6 396/2/6 403/2/6
f 403/2/6 396/2/6 404/2/6
f 389/1/6 390/1/6 405/1/6
f 405/1/6 390/1/6 406/1/6
f 397/1/6 398/1/6 407/1/6
f 407/1/6 398/1/6 408/1/6
