# MagicaVoxel @ Ephtracy

# group
g Chain

# material
mtllib Chain.mtl
usemtl palette

# normals
vn -1 0 0
vn 1 0 0
vn 0 0 1
vn 0 0 -1
vn 0 -1 0
vn 0 1 0

# texcoords
vt 0.947266 0.5
vt 0.951172 0.5
vt 0.955078 0.5

# verts
v -0.5 0 2.5
v -0.5 0 -2.5
v -0.5 1 3.5
v -0.5 1 2.5
v -0.5 1 1.5
v -0.5 1 0.5
v -0.5 1 -0.5
v -0.5 1 -1.5
v -0.5 1 -2.5
v -0.5 1 -3.5
v -0.5 3 3.5
v -0.5 3 2.5
v -0.5 3 1.5
v -0.5 3 0.5
v -0.5 3 -0.5
v -0.5 3 -1.5
v -0.5 3 -2.5
v -0.5 3 -3.5
v -0.5 4 2.5
v -0.5 4 -2.5
v 0.5 0 2.5
v 0.5 0 -2.5
v 0.5 1 3.5
v 0.5 1 2.5
v 0.5 1 1.5
v 0.5 1 0.5
v 0.5 1 -0.5
v 0.5 1 -1.5
v 0.5 1 -2.5
v 0.5 1 -3.5
v 0.5 3 3.5
v 0.5 3 2.5
v 0.5 3 1.5
v 0.5 3 0.5
v 0.5 3 -0.5
v 0.5 3 -1.5
v 0.5 3 -2.5
v 0.5 3 -3.5
v 0.5 4 2.5
v 0.5 4 -2.5
v -0.5 1 3.5
v -0.5 3 3.5
v 0.5 1 3.5
v 0.5 3 3.5
v -0.5 0 2.5
v -0.5 1 2.5
v -0.5 3 2.5
v -0.5 4 2.5
v 0.5 0 2.5
v 0.5 1 2.5
v 0.5 3 2.5
v 0.5 4 2.5
v -0.5 1 -0.5
v -0.5 3 -0.5
v 0.5 1 -0.5
v 0.5 3 -0.5
v -0.5 1 0.5
v -0.5 3 0.5
v 0.5 1 0.5
v 0.5 3 0.5
v -0.5 0 -2.5
v -0.5 1 -2.5
v -0.5 3 -2.5
v -0.5 4 -2.5
v 0.5 0 -2.5
v 0.5 1 -2.5
v 0.5 3 -2.5
v 0.5 4 -2.5
v -0.5 1 -3.5
v -0.5 3 -3.5
v 0.5 1 -3.5
v 0.5 3 -3.5
v -0.5 0 2.5
v 0.5 0 2.5
v -0.5 0 -2.5
v 0.5 0 -2.5
v -0.5 1 3.5
v 0.5 1 3.5
v -0.5 1 2.5
v 0.5 1 2.5
v -0.5 1 -2.5
v 0.5 1 -2.5
v -0.5 1 -3.5
v 0.5 1 -3.5
v -0.5 3 0.5
v 0.5 3 0.5
v -0.5 3 -0.5
v 0.5 3 -0.5
v -0.5 1 0.5
v 0.5 1 0.5
v -0.5 1 -0.5
v 0.5 1 -0.5
v -0.5 3 3.5
v 0.5 3 3.5
v -0.5 3 2.5
v 0.5 3 2.5
v -0.5 3 -2.5
v 0.5 3 -2.5
v -0.5 3 -3.5
v 0.5 3 -3.5
v -0.5 4 2.5
v 0.5 4 2.5
v -0.5 4 -2.5
v 0.5 4 -2.5

# faces
f 4/2/1 2/2/1 1/2/1
f 5/2/1 2/2/1 4/2/1
f 6/2/1 2/2/1 5/2/1
f 7/2/1 2/2/1 6/2/1
f 8/2/1 2/2/1 7/2/1
f 9/2/1 2/2/1 8/2/1
f 11/2/1 4/2/1 3/2/1
f 12/3/1 5/3/1 4/3/1
f 12/2/1 4/2/1 11/2/1
f 13/1/1 6/1/1 5/1/1
f 13/3/1 5/3/1 12/3/1
f 14/1/1 6/1/1 13/1/1
f 15/1/1 8/1/1 7/1/1
f 16/3/1 9/3/1 8/3/1
f 16/1/1 8/1/1 15/1/1
f 17/2/1 10/2/1 9/2/1
f 17/3/1 9/3/1 16/3/1
f 18/2/1 10/2/1 17/2/1
f 19/2/1 16/2/1 15/2/1
f 19/2/1 17/2/1 16/2/1
f 19/2/1 15/2/1 14/2/1
f 19/2/1 13/2/1 12/2/1
f 19/2/1 14/2/1 13/2/1
f 20/2/1 17/2/1 19/2/1
f 21/2/2 22/2/2 24/2/2
f 24/2/2 22/2/2 25/2/2
f 25/2/2 22/2/2 26/2/2
f 26/2/2 22/2/2 27/2/2
f 27/2/2 22/2/2 28/2/2
f 28/2/2 22/2/2 29/2/2
f 23/2/2 24/2/2 31/2/2
f 24/3/2 25/3/2 32/3/2
f 31/2/2 24/2/2 32/2/2
f 25/1/2 26/1/2 33/1/2
f 32/3/2 25/3/2 33/3/2
f 33/1/2 26/1/2 34/1/2
f 27/1/2 28/1/2 35/1/2
f 28/3/2 29/3/2 36/3/2
f 35/1/2 28/1/2 36/1/2
f 29/2/2 30/2/2 37/2/2
f 36/3/2 29/3/2 37/3/2
f 37/2/2 30/2/2 38/2/2
f 35/2/2 36/2/2 39/2/2
f 36/2/2 37/2/2 39/2/2
f 34/2/2 35/2/2 39/2/2
f 32/2/2 33/2/2 39/2/2
f 33/2/2 34/2/2 39/2/2
f 39/2/2 37/2/2 40/2/2
f 43/2/3 42/2/3 41/2/3
f 44/2/3 42/2/3 43/2/3
f 49/2/3 46/2/3 45/2/3
f 50/2/3 46/2/3 49/2/3
f 51/2/3 48/2/3 47/2/3
f 52/2/3 48/2/3 51/2/3
f 55/1/3 54/1/3 53/1/3
f 56/1/3 54/1/3 55/1/3
f 57/1/4 58/1/4 59/1/4
f 59/1/4 58/1/4 60/1/4
f 61/2/4 62/2/4 65/2/4
f 65/2/4 62/2/4 66/2/4
f 63/2/4 64/2/4 67/2/4
f 67/2/4 64/2/4 68/2/4
f 69/2/4 70/2/4 71/2/4
f 71/2/4 70/2/4 72/2/4
f 75/2/5 74/2/5 73/2/5
f 76/2/5 74/2/5 75/2/5
f 79/2/5 78/2/5 77/2/5
f 80/2/5 78/2/5 79/2/5
f 83/2/5 82/2/5 81/2/5
f 84/2/5 82/2/5 83/2/5
f 87/2/5 86/2/5 85/2/5
f 88/2/5 86/2/5 87/2/5
f 89/2/6 90/2/6 91/2/6
f 91/2/6 90/2/6 92/2/6
f 93/2/6 94/2/6 95/2/6
f 95/2/6 94/2/6 96/2/6
f 97/2/6 98/2/6 99/2/6
f 99/2/6 98/2/6 100/2/6
f 101/2/6 102/2/6 103/2/6
f 103/2/6 102/2/6 104/2/6
