# MagicaVoxel @ Ephtracy

# group
g MiddleMountain

# material
mtllib MiddleMountain.mtl
usemtl palette

# normals
vn -1 0 0
vn 1 0 0
vn 0 0 1
vn 0 0 -1
vn 0 -1 0
vn 0 1 0

# texcoords
vt 0.306641 0.5
vt 0.939453 0.5
vt 0.970703 0.5
vt 0.974609 0.5
vt 0.986328 0.5

# verts
v -52 8 48
v -52 8 -48
v -52 14 48
v -52 14 -48
v -52 15 48
v -52 15 -48
v -52 16 48
v -52 16 -48
v -52 17 48
v -52 17 -48
v 52 8 48
v 52 8 -48
v 52 14 48
v 52 14 -48
v 52 15 48
v 52 15 -48
v 52 16 48
v 52 16 -48
v 52 17 48
v 52 17 -48
v -52 8 48
v -52 14 48
v -52 15 48
v -52 16 48
v -52 17 48
v 52 8 48
v 52 14 48
v 52 15 48
v 52 16 48
v 52 17 48
v -52 8 -48
v -52 14 -48
v -52 15 -48
v -52 16 -48
v -52 17 -48
v 52 8 -48
v 52 14 -48
v 52 15 -48
v 52 16 -48
v 52 17 -48
v -52 8 48
v 52 8 48
v -52 8 -48
v 52 8 -48
v -52 17 48
v 52 17 48
v -52 17 -48
v 52 17 -48

# faces
f 3/4/1 2/4/1 1/4/1
f 4/4/1 2/4/1 3/4/1
f 5/2/1 4/2/1 3/2/1
f 6/2/1 4/2/1 5/2/1
f 7/3/1 6/3/1 5/3/1
f 8/3/1 6/3/1 7/3/1
f 9/5/1 8/5/1 7/5/1
f 10/5/1 8/5/1 9/5/1
f 11/4/2 12/4/2 13/4/2
f 13/4/2 12/4/2 14/4/2
f 13/2/2 14/2/2 15/2/2
f 15/2/2 14/2/2 16/2/2
f 15/3/2 16/3/2 17/3/2
f 17/3/2 16/3/2 18/3/2
f 17/5/2 18/5/2 19/5/2
f 19/5/2 18/5/2 20/5/2
f 26/4/3 22/4/3 21/4/3
f 27/2/3 23/2/3 22/2/3
f 27/4/3 22/4/3 26/4/3
f 28/3/3 24/3/3 23/3/3
f 28/2/3 23/2/3 27/2/3
f 29/5/3 25/5/3 24/5/3
f 29/3/3 24/3/3 28/3/3
f 30/5/3 25/5/3 29/5/3
f 31/4/4 32/4/4 36/4/4
f 32/2/4 33/2/4 37/2/4
f 36/4/4 32/4/4 37/4/4
f 33/3/4 34/3/4 38/3/4
f 37/2/4 33/2/4 38/2/4
f 34/5/4 35/5/4 39/5/4
f 38/3/4 34/3/4 39/3/4
f 39/5/4 35/5/4 40/5/4
f 43/4/5 42/4/5 41/4/5
f 44/4/5 42/4/5 43/4/5
f 45/5/6 46/5/6 47/5/6
f 47/5/6 46/5/6 48/5/6
